# xmcd
#
# Track frame offsets:
#	150
#	14639
#	28797
#	47149
#	68081
#	81369
#	95904
#	111926
#	128689
#	144149
#	158844
#	178871
#	194264
#	212701
#	229357
#	243849
#	271831
#
# Disc length: 3934 seconds
#
# Revision: 2
# Processed by: cddbd v1.5.2PL0 Copyright (c) Steve Scherf et al.
# Submitted via: EasyCDDAExtractor 15.3.0.1
#
DISCID=f20f5c11
DTITLE=Lucy Hale - Road Between (Deluxe Edition 2014)
DYEAR=2014
DGENRE=USA Country
TTITLE0=You Sound Good To Me
TTITLE1=From The Backseat
TTITLE2=Nervous Girls
TTITLE3=Red Dress
TTITLE4=Goodbye Gone
TTITLE5=Kiss Me
TTITLE6=Road Between
TTITLE7=Lie A Little Better
TTITLE8=That’s What I Call Crazy
TTITLE9=Love Tonight
TTITLE10=Just Another Song
TTITLE11=My Little Black Wedding Dress [Bonus Track]
TTITLE12=Feels Like Home [Bonus Track]
TTITLE13=Loved [Bonus Track]
TTITLE14=Kiss Me [Acoustic Bonus Track]
TTITLE15=Road Between [ Acoustic Bonus Track]
TTITLE16=DATA
EXTD=
EXTT0=
EXTT1=
EXTT2=
EXTT3=
EXTT4=
EXTT5=
EXTT6=
EXTT7=
EXTT8=
EXTT9=
EXTT10=
EXTT11=
EXTT12=
EXTT13=
EXTT14=
EXTT15=
EXTT16=
PLAYORDER=
